<svg width="18" height="20" viewBox="0 0 18 20" fill="none" xmlns="http://www.w3.org/2000/svg">
<g clip-path="url(#clip0)">
<path d="M17.4279 9.73887L12.4206 3.30598C12.3138 3.1696 12.1647 3.09241 12.0067 3.09241H8.66856C8.44935 3.09241 8.25017 3.24165 8.16004 3.47323C8.07103 3.7061 8.10775 3.97757 8.25463 4.16541L12.9269 10.1686L8.25463 16.1705C8.10775 16.3596 8.06991 16.6311 8.16004 16.8626C8.25017 17.0955 8.44935 17.2448 8.66856 17.2448H12.0067C12.1647 17.2448 12.3138 17.1663 12.4206 17.0325L17.4279 10.5996C17.6181 10.3551 17.6181 9.98203 17.4279 9.73887Z" fill="white" fill-opacity="0.19"/>
<path d="M10.1952 9.73887L5.18797 3.30598C5.08115 3.1696 4.93204 3.09241 4.77404 3.09241H1.43589C1.21668 3.09241 1.01751 3.24165 0.927379 3.47323C0.838361 3.7061 0.875081 3.97757 1.02196 4.16541L5.69425 10.1686L1.02196 16.1705C0.875081 16.3596 0.837249 16.6311 0.927379 16.8626C1.01751 17.0955 1.21668 17.2448 1.43589 17.2448H4.77404C4.93204 17.2448 5.08115 17.1663 5.18797 17.0325L10.1952 10.5996C10.3855 10.3551 10.3855 9.98203 10.1952 9.73887Z" fill="white" fill-opacity="0.19"/>
</g>
<defs>
<clipPath id="clip0">
<rect width="16.6916" height="19.2997" fill="white" transform="translate(0.878906 0.518738)"/>
</clipPath>
</defs>
</svg>
