<svg width="32" height="37" viewBox="0 0 32 37" fill="none" xmlns="http://www.w3.org/2000/svg">
<path d="M31.7264 17.6768L22.1269 5.34414C21.9221 5.08268 21.6363 4.93469 21.3334 4.93469H14.9337C14.5135 4.93469 14.1316 5.22081 13.9588 5.66479C13.7882 6.11123 13.8586 6.63167 14.1402 6.99178L23.0975 18.5006L14.1402 30.007C13.8586 30.3696 13.7861 30.89 13.9588 31.334C14.1316 31.7804 14.5135 32.0666 14.9337 32.0666H21.3334C21.6363 32.0666 21.9221 31.9161 22.1269 31.6596L31.7264 19.3269C32.0912 18.8583 32.0912 18.143 31.7264 17.6768Z" fill="white" fill-opacity="0.19"/>
<path d="M17.8605 17.6768L8.26102 5.34414C8.05623 5.08268 7.77038 4.93469 7.46747 4.93469H1.06781C0.647568 4.93469 0.265722 5.22081 0.0929316 5.66479C-0.0777258 6.11123 -0.00732961 6.63167 0.274255 6.99178L9.23164 18.5006L0.274255 30.007C-0.00732961 30.3696 -0.079859 30.89 0.0929316 31.334C0.265722 31.7804 0.647568 32.0666 1.06781 32.0666H7.46747C7.77038 32.0666 8.05623 31.9161 8.26102 31.6596L17.8605 19.3269C18.2253 18.8583 18.2253 18.143 17.8605 17.6768Z" fill="white" fill-opacity="0.19"/>
</svg>
