<svg width="18" height="20" viewBox="0 0 18 20" fill="none" xmlns="http://www.w3.org/2000/svg">
<path d="M15.8914 0H2.10857C0.946286 0 0 0.92 0 2.06V15.58C0 16.72 0.946286 17.64 2.10857 17.64H13.7726L13.2274 15.79L14.544 16.98L15.7886 18.1L18 20V2.06C18 0.92 17.0537 0 15.8914 0ZM11.9211 13.06C11.9211 13.06 11.5509 12.63 11.2423 12.25C12.5897 11.88 13.104 11.06 13.104 11.06C12.6823 11.33 12.2811 11.52 11.9211 11.65C11.4069 11.86 10.9131 12 10.4297 12.08C9.44229 12.26 8.53714 12.21 7.76571 12.07C7.17943 11.96 6.67543 11.8 6.25371 11.64C6.01714 11.55 5.76 11.44 5.50286 11.3C5.472 11.28 5.44114 11.27 5.41029 11.25C5.38971 11.24 5.37943 11.23 5.36914 11.22C5.184 11.12 5.08114 11.05 5.08114 11.05C5.08114 11.05 5.57486 11.85 6.88114 12.23C6.57257 12.61 6.192 13.06 6.192 13.06C3.91886 12.99 3.05486 11.54 3.05486 11.54C3.05486 8.32 4.536 5.71 4.536 5.71C6.01714 4.63 7.42629 4.66 7.42629 4.66L7.52914 4.78C5.67771 5.3 4.824 6.09 4.824 6.09C4.824 6.09 5.05029 5.97 5.43086 5.8C6.53143 5.33 7.40571 5.2 7.76571 5.17C7.82743 5.16 7.87886 5.15 7.94057 5.15C8.568 5.07 9.27771 5.05 10.0183 5.13C10.9954 5.24 12.0446 5.52 13.1143 6.09C13.1143 6.09 12.3017 5.34 10.5531 4.82L10.6971 4.66C10.6971 4.66 12.1063 4.63 13.5874 5.71C13.5874 5.71 15.0686 8.32 15.0686 11.54C15.0686 11.54 14.1943 12.99 11.9211 13.06ZM7.13829 8.39C6.552 8.39 6.08914 8.89 6.08914 9.5C6.08914 10.11 6.56229 10.61 7.13829 10.61C7.72457 10.61 8.18743 10.11 8.18743 9.5C8.19771 8.89 7.72457 8.39 7.13829 8.39ZM10.8926 8.39C10.3063 8.39 9.84343 8.89 9.84343 9.5C9.84343 10.11 10.3166 10.61 10.8926 10.61C11.4789 10.61 11.9417 10.11 11.9417 9.5C11.9417 8.89 11.4789 8.39 10.8926 8.39Z" fill="white"/>
</svg>
