<svg width="21" height="13" viewBox="0 0 21 13" fill="none" xmlns="http://www.w3.org/2000/svg">
<path d="M20.8063 11.6153C20.8063 11.5322 20.7232 11.5322 20.7232 11.4492C20.3911 10.785 19.6439 9.9548 18.6477 9.04155C18.1495 8.62644 17.9004 8.29434 17.7344 8.12829C17.4853 7.7962 17.4853 7.54714 17.5684 7.21505C17.6514 6.96598 17.9835 6.55086 18.5646 5.80365C18.8967 5.38853 19.0628 5.13947 19.3118 4.8904C20.5572 3.22995 21.1383 2.15064 20.9723 1.6525L20.8893 1.56949C20.8063 1.48646 20.7232 1.40344 20.5572 1.40344C20.3911 1.32042 20.1421 1.32042 19.893 1.40344H16.7381C16.6551 1.40344 16.6551 1.40344 16.4891 1.40344C16.406 1.40344 16.323 1.40344 16.323 1.40344H16.24H16.157L16.0739 1.48646C15.9909 1.56948 15.9909 1.56948 15.9909 1.6525C15.6588 2.56575 15.2437 3.31296 14.8286 4.14319C14.5795 4.55831 14.3305 4.97343 14.0814 5.30552C13.8323 5.63761 13.6663 5.88667 13.5002 6.05272C13.3342 6.21877 13.1681 6.30179 13.0851 6.46783C13.0021 6.55086 12.8361 6.63389 12.8361 6.55086C12.753 6.55086 12.67 6.55086 12.67 6.46783C12.587 6.38481 12.504 6.30179 12.4209 6.21876C12.3379 6.13574 12.3379 5.96969 12.2549 5.80365C12.2549 5.6376 12.2549 5.47156 12.2549 5.38853C12.2549 5.30551 12.2549 5.05645 12.2549 4.8904C12.2549 4.64134 12.2549 4.47528 12.2549 4.39226C12.2549 4.14319 12.2549 3.81111 12.2549 3.47902C12.2549 3.14693 12.2549 2.89785 12.2549 2.7318C12.2549 2.56576 12.2549 2.31669 12.2549 2.15065C12.2549 1.90158 12.2549 1.73553 12.2549 1.6525C12.2549 1.56948 12.1719 1.40344 12.1719 1.32042C12.0889 1.23739 12.0058 1.15437 11.9228 1.07134C11.8398 0.988322 11.6737 0.988324 11.5907 0.905301C11.1756 0.822278 10.6775 0.739258 10.0963 0.739258C8.76794 0.739258 7.85468 0.822283 7.52259 0.988329C7.35655 1.07135 7.1905 1.15437 7.10748 1.32042C6.94143 1.48646 6.94143 1.56949 7.02445 1.56949C7.43957 1.65251 7.77166 1.81855 7.93771 2.06762L8.02074 2.23367C8.10376 2.3167 8.10374 2.48273 8.18677 2.7318C8.26979 2.98087 8.26979 3.22994 8.26979 3.56203C8.26979 4.06017 8.26979 4.55831 8.26979 4.8904C8.26979 5.30552 8.18677 5.55458 8.18677 5.80365C8.18677 6.05272 8.10376 6.21877 8.02074 6.30179C7.93771 6.46784 7.9377 6.55086 7.85468 6.55086C7.85468 6.55086 7.85467 6.63388 7.77165 6.63388C7.68863 6.63388 7.60561 6.71691 7.43957 6.71691C7.35654 6.71691 7.1905 6.63389 7.10748 6.55086C6.94143 6.46784 6.77539 6.30179 6.69236 6.13575C6.52632 5.9697 6.36027 5.72063 6.19422 5.38853C6.02818 5.05644 5.7791 4.72436 5.61305 4.22622L5.44702 3.89413C5.364 3.72809 5.19795 3.39599 5.03191 2.98087C4.86586 2.56576 4.69981 2.23367 4.53376 1.81856C4.45074 1.65251 4.36773 1.56948 4.2847 1.48646H4.20168C4.20168 1.48646 4.11864 1.40344 4.03562 1.40344C3.9526 1.40344 3.86958 1.32042 3.78656 1.32042H0.797731C0.465639 1.32042 0.299596 1.40344 0.216573 1.48646L0.133545 1.56949C0.133545 1.56949 0.133545 1.65251 0.133545 1.73553C0.133545 1.81855 0.13355 1.90157 0.216573 2.06762C0.631688 3.06389 1.12982 4.06017 1.62796 5.05645C2.1261 5.9697 2.62424 6.79993 2.95633 7.38109C3.37145 7.96225 3.70353 8.54341 4.11865 9.04155C4.53376 9.53969 4.78283 9.87178 4.86585 10.0378C5.0319 10.2039 5.11491 10.2869 5.19794 10.3699L5.44702 10.619C5.61307 10.785 5.86213 11.0341 6.19422 11.2832C6.52631 11.5322 6.94142 11.7813 7.35654 12.0304C7.77165 12.2794 8.2698 12.4455 8.76794 12.6115C9.3491 12.7776 9.84723 12.8606 10.3454 12.7776H11.5907C11.8398 12.7776 12.0058 12.6946 12.1719 12.5285L12.2549 12.4455C12.2549 12.3625 12.3379 12.3625 12.3379 12.2794C12.3379 12.1964 12.3379 12.1134 12.3379 11.9474C12.3379 11.6153 12.3379 11.3662 12.4209 11.1171C12.504 10.8681 12.504 10.702 12.587 10.536C12.67 10.3699 12.753 10.2869 12.8361 10.2039C12.9191 10.1208 13.0021 10.0378 13.0021 10.0378H13.0851C13.2512 9.9548 13.5002 10.0378 13.6663 10.2039C13.9154 10.3699 14.1644 10.619 14.3305 10.8681C14.4965 11.1171 14.7456 11.3662 15.0777 11.6983C15.4098 12.0304 15.6588 12.2794 15.8249 12.3625L16.0739 12.5285C16.24 12.6115 16.406 12.6946 16.6551 12.7776C16.9042 12.8606 17.0702 12.8606 17.2363 12.8606L20.0591 12.7776C20.3081 12.7776 20.5572 12.6946 20.7232 12.6115C20.8893 12.5285 20.9723 12.4455 20.9723 12.2794C20.9723 12.1964 20.9723 12.0304 20.9723 11.9474C20.8062 11.7813 20.8063 11.6983 20.8063 11.6153Z" fill="white"/>
</svg>
