<svg width="32" height="37" fill="none" xmlns="http://www.w3.org/2000/svg"><path d="M31.726 17.677l-9.6-12.333a1.01 1.01 0 00-.793-.41h-6.4c-.42 0-.801.287-.974.73-.17.447-.1.968.181 1.328L23.097 18.5 14.14 30.007a1.383 1.383 0 00-.181 1.327c.173.446.555.733.975.733h6.4c.302 0 .588-.15.793-.407l9.6-12.333a1.38 1.38 0 000-1.65z" fill="#fff" fill-opacity=".19"/><path d="M17.86 17.677L8.261 5.344a1.01 1.01 0 00-.794-.41h-6.4c-.42 0-.801.287-.974.73-.17.447-.1.968.181 1.328L9.232 18.5.274 30.007a1.383 1.383 0 00-.181 1.327c.173.446.555.733.975.733h6.4c.302 0 .588-.15.793-.407l9.6-12.333a1.38 1.38 0 000-1.65z" fill="#fff" fill-opacity=".19"/></svg>