<svg width="18" height="20" fill="none" xmlns="http://www.w3.org/2000/svg"><g clip-path="url(#clip0)" fill="#fff" fill-opacity=".19"><path d="M17.428 9.739L12.42 3.306a.527.527 0 00-.414-.214H8.669c-.22 0-.419.15-.509.381a.723.723 0 00.095.692l4.672 6.004-4.672 6.002a.721.721 0 00-.095.692c.09.233.29.382.509.382h3.338a.533.533 0 00.414-.213l5.007-6.432a.72.72 0 000-.861z"/><path d="M10.195 9.739L5.188 3.306a.527.527 0 00-.414-.214H1.436c-.22 0-.418.15-.509.381a.723.723 0 00.095.692l4.672 6.004-4.672 6.002a.721.721 0 00-.095.692c.09.233.29.382.509.382h3.338a.533.533 0 00.414-.213l5.007-6.432a.72.72 0 000-.861z"/></g><defs><clipPath id="clip0"><path fill="#fff" transform="translate(.879 .519)" d="M0 0h16.692v19.3H0z"/></clipPath></defs></svg>