<svg width="18" height="20" fill="none" xmlns="http://www.w3.org/2000/svg"><path d="M15.891 0H2.11C.946 0 0 .92 0 2.06v13.52c0 1.14.946 2.06 2.109 2.06h11.664l-.546-1.85 1.317 1.19 1.245 1.12L18 20V2.06C18 .92 17.054 0 15.891 0zm-3.97 13.06s-.37-.43-.679-.81c1.348-.37 1.862-1.19 1.862-1.19a5.96 5.96 0 01-1.183.59c-.514.21-1.008.35-1.491.43-.988.18-1.893.13-2.664-.01a8.822 8.822 0 01-1.512-.43 6.11 6.11 0 01-.751-.34c-.031-.02-.062-.03-.093-.05-.02-.01-.03-.02-.04-.03-.186-.1-.289-.17-.289-.17s.494.8 1.8 1.18c-.308.38-.689.83-.689.83-2.273-.07-3.137-1.52-3.137-1.52 0-3.22 1.481-5.83 1.481-5.83 1.481-1.08 2.89-1.05 2.89-1.05l.103.12c-1.851.52-2.705 1.31-2.705 1.31s.226-.12.607-.29c1.1-.47 1.975-.6 2.335-.63.061-.01.113-.02.175-.02a8.95 8.95 0 012.077-.02c.977.11 2.027.39 3.096.96 0 0-.812-.75-2.56-1.27l.143-.16s1.41-.03 2.89 1.05c0 0 1.482 2.61 1.482 5.83 0 0-.875 1.45-3.148 1.52zM7.138 8.39c-.586 0-1.049.5-1.049 1.11 0 .61.473 1.11 1.05 1.11.586 0 1.048-.5 1.048-1.11.01-.61-.462-1.11-1.049-1.11zm3.755 0c-.587 0-1.05.5-1.05 1.11 0 .61.474 1.11 1.05 1.11.586 0 1.049-.5 1.049-1.11 0-.61-.463-1.11-1.05-1.11z" fill="#fff"/></svg>